{
  "accessors": [
    {
      "bufferView": 2,
      "componentType": 5126,
      "count": 777,
      "max": [
        0.20000000298023224,
        0.20000000298023224,
        0.736365020275116
      ],
      "min": [
        -0.20000000298023224,
        -0.20000000298023224,
        -2.2000000171829015e-05
      ],
      "type": "VEC3"
    },
    {
      "bufferView": 2,
      "byteOffset": 9324,
      "componentType": 5126,
      "count": 777,
      "max": [
        0.9950372576713562,
        0.9976978302001953,
        1.0
      ],
      "min": [
        -0.9945558309555054,
        -0.9976978302001953,
        -0.9999775886535645
      ],
      "type": "VEC3"
    },
    {
      "bufferView": 3,
      "componentType": 5126,
      "count": 777,
      "max": [
        0.9997616410255432,
        0.9868879318237305,
        0.9922088980674744,
        1.0
      ],
      "min": [
        -0.9868878722190857,
        -0.9965035915374756,
        -0.9928454160690308,
        1.0
      ],
      "type": "VEC4"
    },
    {
      "bufferView": 1,
      "componentType": 5126,
      "count": 777,
      "max": [
        0.9911370277404785,
        0.9954670071601868
      ],
      "min": [
        0.005803999956697226,
        0.004645999986678362
      ],
      "type": "VEC2"
    },
    {
      "bufferView": 0,
      "componentType": 5125,
      "count": 3822,
      "type": "SCALAR"
    }
  ],
  "asset": {
    "extras": {
      "author": "Bob (https://sketchfab.com/MeBob)",
      "license": "CC-BY-4.0 (http://creativecommons.org/licenses/by/4.0/)",
      "source": "https://sketchfab.com/3d-models/cola-can-7100e240888a4c259d14aaf46bb20537",
      "title": "Cola Can"
    },
    "generator": "Sketchfab-14.86.0",
    "version": "2.0"
  },
  "bufferViews": [
    {
      "buffer": 0,
      "byteLength": 15288,
      "name": "floatBufferViews",
      "target": 34963
    },
    {
      "buffer": 0,
      "byteLength": 6216,
      "byteOffset": 15288,
      "byteStride": 8,
      "name": "floatBufferViews",
      "target": 34962
    },
    {
      "buffer": 0,
      "byteLength": 18648,
      "byteOffset": 21504,
      "byteStride": 12,
      "name": "floatBufferViews",
      "target": 34962
    },
    {
      "buffer": 0,
      "byteLength": 12432,
      "byteOffset": 40152,
      "byteStride": 16,
      "name": "floatBufferViews",
      "target": 34962
    }
  ],
  "buffers": [
    {
      "byteLength": 52584,
      "uri": "scene.bin"
    }
  ],
  "extensionsUsed": [
    "KHR_materials_specular"
  ],
  "images": [
    {
      "uri": "textures/Material.001_baseColor.png"
    },
    {
      "uri": "textures/Material.001_metallicRoughness.png"
    },
    {
      "uri": "textures/Material.001_normal.png"
    }
  ],
  "materials": [
    {
      "doubleSided": true,
      "extensions": {
        "KHR_materials_specular": {
          "specularColorFactor": [
            1.0,
            1.0,
            1.0
          ],
          "specularFactor": 0.5187442968829206
        }
      },
      "name": "Material.001",
      "normalTexture": {
        "index": 2
      },
      "occlusionTexture": {
        "index": 1
      },
      "pbrMetallicRoughness": {
        "baseColorTexture": {
          "index": 0
        },
        "metallicRoughnessTexture": {
          "index": 1
        }
      }
    }
  ],
  "meshes": [
    {
      "name": "Object_0",
      "primitives": [
        {
          "attributes": {
            "NORMAL": 1,
            "POSITION": 0,
            "TANGENT": 2,
            "TEXCOORD_0": 3
          },
          "indices": 4,
          "material": 0,
          "mode": 4
        }
      ]
    }
  ],
  "nodes": [
    {
      "children": [
        1
      ],
      "matrix": [
        0.25,
        0.0,
        0.0,
        0.0,
        0.0,
        5.551115123125783e-17,
        -0.25,
        0.0,
        0.0,
        0.25,
        5.551115123125783e-17,
        0.0,
        0.0,
        0.0,
        0.0,
        1.0
      ],
      "name": "Sketchfab_model"
    },
    {
      "children": [
        2
      ],
      "name": "4ca947c79df748ffb6add0b1f10f9395.obj.cleaner.materialmerger.gles"
    },
    {
      "mesh": 0,
      "name": "Object_2"
    }
  ],
  "samplers": [
    {
      "magFilter": 9729,
      "minFilter": 9987,
      "wrapS": 10497,
      "wrapT": 10497
    }
  ],
  "scene": 0,
  "scenes": [
    {
      "name": "Sketchfab_Scene",
      "nodes": [
        0
      ]
    }
  ],
  "textures": [
    {
      "sampler": 0,
      "source": 0
    },
    {
      "sampler": 0,
      "source": 1
    },
    {
      "sampler": 0,
      "source": 2
    }
  ]
}
